HIERARCHY
ROOT Hips
{
 OFFSET 0.000000 0.000000 0.000000
 CHANNELS 6 Xposition Yposition Zposition Yrotation Xrotation Zrotation
 JOINT Chest
 {
  OFFSET 0.000000 9.588913 -0.003946
  CHANNELS 3 Yrotation Xrotation Zrotation
  JOINT Chest2
  {
   OFFSET 0.000000 9.541882 0.008053
   CHANNELS 3 Yrotation Xrotation Zrotation
   JOINT Chest3
   {
    OFFSET 0.000000 9.501360 0.000000
    CHANNELS 3 Yrotation Xrotation Zrotation
    JOINT Chest4
    {
     OFFSET 0.000000 9.491660 0.000000
     CHANNELS 3 Yrotation Xrotation Zrotation
     JOINT Neck
     {
      OFFSET 0.000000 14.331917 0.000000
      CHANNELS 3 Yrotation Xrotation Zrotation
      JOINT Head
      {
       OFFSET 0.000000 8.884799 0.017034
       CHANNELS 3 Yrotation Xrotation Zrotation
       End Site
       {
        OFFSET 0.000000 16.896195 0.008993
       }
      }
     }
     JOINT RightCollar
     {
      OFFSET -2.923010 9.499495 0.000000
      CHANNELS 3 Yrotation Xrotation Zrotation
      JOINT RightShoulder
      {
       OFFSET -13.795216 0.000000 0.000000
       CHANNELS 3 Yrotation Xrotation Zrotation
       JOINT RightElbow
       {
        OFFSET -30.272209 0.000000 0.000000
        CHANNELS 3 Yrotation Xrotation Zrotation
        JOINT RightWrist
        {
         OFFSET -24.478199 0.000000 0.000000
         CHANNELS 3 Yrotation Xrotation Zrotation
         End Site
         {
          OFFSET -18.090752 0.000000 0.000000
         }
        }
       }
      }
     }
     JOINT LeftCollar
     {
      OFFSET 2.923010 9.499495 0.000000
      CHANNELS 3 Yrotation Xrotation Zrotation
      JOINT LeftShoulder
      {
       OFFSET 13.795216 0.000000 0.000000
       CHANNELS 3 Yrotation Xrotation Zrotation
       JOINT LeftElbow
       {
        OFFSET 30.272209 0.000000 0.000000
        CHANNELS 3 Yrotation Xrotation Zrotation
        JOINT LeftWrist
        {
         OFFSET 24.478199 0.000000 0.000000
         CHANNELS 3 Yrotation Xrotation Zrotation
         End Site
         {
          OFFSET 18.090752 0.000000 0.000000
         }
        }
       }
      }
     }
    }
   }
  }
 }
 JOINT RightHip
 {
  OFFSET -7.826875 0.019532 0.001973
  CHANNELS 3 Yrotation Xrotation Zrotation
  JOINT RightKnee
  {
   OFFSET 0.000000 -40.546152 -0.001885
   CHANNELS 3 Yrotation Xrotation Zrotation
   JOINT RightAnkle
   {
    OFFSET 0.000000 -39.417092 -0.003189
    CHANNELS 3 Yrotation Xrotation Zrotation
    JOINT RightToe
    {
     OFFSET 0.000000 -7.579396 17.243563
     CHANNELS 3 Yrotation Xrotation Zrotation
     End Site
     {
      OFFSET 0.000000 -1.500329 6.694466
     }
    }
   }
  }
 }
 JOINT LeftHip
 {
  OFFSET 7.826875 0.019532 0.001973
  CHANNELS 3 Yrotation Xrotation Zrotation
  JOINT LeftKnee
  {
   OFFSET 0.000000 -40.546152 -0.001885
   CHANNELS 3 Yrotation Xrotation Zrotation
   JOINT LeftAnkle
   {
    OFFSET 0.000000 -39.417092 -0.003189
    CHANNELS 3 Yrotation Xrotation Zrotation
    JOINT LeftToe
    {
     OFFSET 0.000000 -7.579396 17.243563
     CHANNELS 3 Yrotation Xrotation Zrotation
     End Site
     {
      OFFSET 0.000000 -1.500329 6.694466
     }
    }
   }
  }
 }
}
MOTION
Frames: 14
Frame Time: 0.008333
0.000000 87.345680 0.000000 0.000000 -5.767889 0.000000 0.000000 11.653876 0.000000 0.000000 -5.885988 0.000000 0.000000 -0.000000 0.000000 0.000000 -0.000000 0.000000 0.000000 12.528808 0.000000 0.000000 0.711711 0.000000 0.000000 -0.000000 0.000000 0.000000 -0.000000 0.000000 2.309063 -0.000000 0.000000 -2.309063 -0.000000 -0.000000 0.000000 -0.000000 0.000000 0.000000 0.000000 0.000000 -2.309063 0.000000 0.000000 2.309063 -0.000000 0.000000 0.000000 8.520374 0.000000 0.000000 1.905768 0.000000 -0.000000 -4.658254 0.000000 0.000000 -0.000000 0.000000 0.000000 8.520374 0.000000 0.000000 1.905768 0.000000 -0.000000 -4.658254 0.000000 0.000000 -0.000000 0.000000
-1.578778 88.367403 -20.699202 133.103213 -4.506135 0.783836 -1.399740 3.525428 1.088148 -0.796298 2.009972 0.650166 -0.991955 2.513851 0.808460 -0.796298 2.009972 0.650166 -14.533140 16.083970 -2.160238 -26.218098 -5.110999 1.012117 -0.304285 5.524197 -4.745239 -19.425453 -3.903323 86.376346 14.827384 -22.616948 5.804459 1.940640 -7.955488 1.557381 1.621024 6.799291 2.092529 18.966207 3.807488 -87.735526 -13.414261 -21.936275 -14.993320 -11.247146 -8.487413 6.126395 -19.949582 7.866808 -11.200821 -4.408353 -1.212539 -0.234753 -2.648865 -2.547820 7.250750 -0.014443 -0.008355 0.008976 6.663610 9.187633 4.672567 4.929689 1.895674 1.660475 1.209406 -6.528281 -6.727998 -0.009406 0.029297 -0.022706
-1.564188 88.368972 -20.684474 133.187615 -4.525476 0.775263 -1.405965 3.522922 1.081934 -0.799638 2.008441 0.645870 -0.996156 2.511935 0.803073 -0.799638 2.008441 0.645870 -14.520953 16.061383 -2.153334 -26.200599 -5.152718 1.025152 -0.278820 5.512522 -4.733161 -19.439275 -3.900920 86.357018 14.837731 -22.618561 5.825402 1.954570 -7.962093 1.562633 1.592757 6.771201 2.080074 18.918776 3.752623 -87.773270 -13.643983 -21.935856 -15.246959 -11.274356 -8.506288 6.111470 -19.977626 7.905506 -11.186896 -4.426943 -1.202273 -0.235324 -2.688425 -2.566515 7.236061 -0.013262 -0.011833 0.010457 6.627383 9.193520 4.697776 4.923125 1.889384 1.659698 1.173011 -6.513043 -6.736099 -0.007774 0.028038 -0.021091
-1.548154 88.370785 -20.666695 133.271171 -4.542774 0.768213 -1.412781 3.519511 1.074751 -0.803389 2.006392 0.641267 -1.000874 2.509370 0.797302 -0.803389 2.006392 0.641267 -14.506718 16.041491 -2.146612 -26.178927 -5.189819 1.036674 -0.253799 5.500192 -4.722268 -19.451534 -3.896024 86.339088 14.849231 -22.616892 5.847667 1.963063 -7.962673 1.567415 1.564970 6.744603 2.071641 18.868281 3.700803 -87.815145 -13.874952 -21.932755 -15.502927 -11.298522 -8.524949 6.089815 -20.004529 7.942570 -11.169624 -4.443992 -1.193234 -0.238919 -2.731173 -2.585008 7.221177 -0.012970 -0.014636 0.011128 6.592032 9.196379 4.723049 4.914110 1.882943 1.659069 1.139704 -6.494790 -6.747149 -0.007075 0.025632 -0.018948
-1.530900 88.372811 -20.646737 133.351804 -4.560793 0.763457 -1.419145 3.515699 1.066978 -0.806896 2.004153 0.636056 -1.005292 2.506566 0.790772 -0.806896 2.004153 0.636056 -14.490203 16.025883 -2.141304 -26.152035 -5.219670 1.044049 -0.230626 5.489334 -4.713531 -19.460223 -3.889229 86.325968 14.860883 -22.611345 5.868905 1.964431 -7.961108 1.570789 1.533916 6.722287 2.065001 18.815848 3.645857 -87.859470 -14.101433 -21.927775 -15.760472 -11.321530 -8.544193 6.066164 -20.029195 7.979249 -11.151862 -4.463559 -1.183449 -0.243659 -2.773100 -2.604628 7.205724 -0.012818 -0.016274 0.010999 6.556306 9.200180 4.748114 4.897424 1.876192 1.657766 1.114394 -6.474111 -6.761123 -0.006816 0.021951 -0.016180
-1.513043 88.374934 -20.624902 133.431936 -4.578125 0.760781 -1.425239 3.510723 1.058968 -0.810228 2.001395 0.630095 -1.009494 2.503111 0.783308 -0.810228 2.001395 0.630095 -14.470556 16.015515 -2.137742 -26.118111 -5.240698 1.046210 -0.212569 5.480522 -4.706438 -19.462828 -3.880799 86.319072 14.872053 -22.599921 5.888920 1.960986 -7.959640 1.573274 1.500412 6.703213 2.059422 18.760049 3.587953 -87.901065 -14.321563 -21.918020 -16.019602 -11.342747 -8.564702 6.038052 -20.057278 8.012768 -11.134733 -4.485523 -1.171438 -0.249649 -2.807211 -2.626598 7.191656 -0.012090 -0.016792 0.009666 6.515170 9.201779 4.770389 4.875403 1.872234 1.658716 1.097714 -6.453294 -6.777062 -0.006515 0.017804 -0.014337
-1.495176 88.376988 -20.600879 133.510658 -4.590772 0.758436 -1.431326 3.503589 1.050969 -0.813376 1.997348 0.624067 -1.013469 2.498045 0.775764 -0.813376 1.997348 0.624067 -14.446832 16.010474 -2.136368 -26.075241 -5.252963 1.042025 -0.198135 5.471735 -4.700270 -19.459996 -3.869385 86.315894 14.881003 -22.584323 5.908527 1.953570 -7.957166 1.577835 1.467661 6.684201 2.052506 18.699205 3.530421 -87.936937 -14.539353 -21.903194 -16.278253 -11.358074 -8.585823 6.003181 -20.089169 8.038873 -11.114230 -4.506628 -1.156881 -0.259583 -2.832957 -2.651178 7.178831 -0.011254 -0.016046 0.008583 6.469758 9.195430 4.789938 4.854859 1.873509 1.662823 1.086206 -6.434601 -6.792397 -0.006563 0.014377 -0.015025
-1.477005 88.378856 -20.574463 133.583432 -4.598841 0.752855 -1.434895 3.494410 1.043555 -0.814842 1.992184 0.618754 -1.015338 2.491580 0.769124 -0.814842 1.992184 0.618754 -14.420208 16.011255 -2.137433 -26.025459 -5.255435 1.031320 -0.187864 5.462981 -4.694731 -19.456369 -3.855298 86.315377 14.885948 -22.567762 5.929842 1.942979 -7.950148 1.582625 1.432781 6.663264 2.043557 18.634499 3.474885 -87.966505 -14.757742 -21.884004 -16.534738 -11.362993 -8.606937 5.963148 -20.118860 8.059127 -11.086428 -4.524940 -1.140321 -0.271961 -2.854453 -2.677086 7.163745 -0.010638 -0.014669 0.009138 6.430428 9.181461 4.812800 4.835986 1.879117 1.668352 1.074504 -6.419199 -6.806135 -0.007342 0.012382 -0.018117
-1.458469 88.380448 -20.545830 133.648556 -4.603015 0.743636 -1.435352 3.483410 1.036700 -0.814476 1.985947 0.613771 -1.014918 2.483772 0.762910 -0.814476 1.985947 0.613771 -14.389958 16.018854 -2.140226 -25.967556 -5.246242 1.014983 -0.180108 5.456313 -4.688911 -19.453819 -3.841009 86.317480 14.885132 -22.550262 5.951695 1.932171 -7.938745 1.586420 1.396260 6.641745 2.037393 18.568416 3.422395 -87.994247 -14.976210 -21.859581 -16.786958 -11.357167 -8.627332 5.918811 -20.143442 8.075046 -11.052618 -4.540522 -1.122614 -0.282171 -2.875653 -2.703486 7.143949 -0.010153 -0.012664 0.010705 6.400286 9.160906 4.840419 4.817282 1.888759 1.674594 1.062907 -6.407123 -6.820663 -0.008008 0.011588 -0.021168
-1.440087 88.381706 -20.515700 133.709723 -4.603879 0.735209 -1.435403 3.471148 1.028883 -0.813908 1.978606 0.607833 -1.014251 2.474582 0.755504 -0.813908 1.978606 0.607832 -14.353734 16.033928 -2.144085 -25.897343 -5.224364 0.993352 -0.170125 5.450871 -4.679806 -19.451402 -3.827285 86.320591 14.877876 -22.530168 5.971716 1.921369 -7.928190 1.592616 1.362191 6.621926 2.037124 18.503062 3.372149 -88.025217 -15.192794 -21.829542 -17.033119 -11.341904 -8.642720 5.869506 -20.166503 8.086235 -11.019026 -4.554322 -1.104116 -0.288707 -2.896806 -2.731229 7.120935 -0.010193 -0.009212 0.012014 6.370996 9.134409 4.866691 4.797038 1.903349 1.682437 1.056162 -6.397057 -6.837937 -0.007845 0.010633 -0.022652
-1.421834 88.382623 -20.484657 133.770025 -4.603996 0.729521 -1.436366 3.458357 1.019672 -0.813815 1.970805 0.600890 -1.014184 2.464817 0.746842 -0.813815 1.970806 0.600890 -14.310281 16.056851 -2.149443 -25.812316 -5.189355 0.965169 -0.157398 5.443949 -4.667472 -19.447197 -3.813465 86.325138 14.867178 -22.508035 5.988291 1.906949 -7.919832 1.600415 1.331899 6.604085 2.039386 18.438121 3.320613 -88.057488 -15.402004 -21.794659 -17.273230 -11.319312 -8.650187 5.814353 -20.190435 8.095732 -10.987997 -4.565269 -1.086510 -0.293896 -2.920616 -2.759289 7.098629 -0.011273 -0.004529 0.011406 6.333885 9.105780 4.889323 4.772317 1.921677 1.691039 1.059575 -6.386899 -6.857304 -0.007037 0.008414 -0.023050
-1.403211 88.383207 -20.452695 133.832150 -4.605696 0.724168 -1.438948 3.445773 1.010763 -0.814746 1.963354 0.594351 -1.015394 2.455489 0.738677 -0.814746 1.963354 0.594351 -14.258592 16.088218 -2.156912 -25.710353 -5.140358 0.928901 -0.143880 5.433602 -4.655286 -19.438368 -3.798783 86.329546 14.854937 -22.486655 6.001419 1.887926 -7.911729 1.607415 1.306203 6.588081 2.040450 18.372946 3.265380 -88.089232 -15.599492 -21.755302 -17.507387 -11.293343 -8.652820 5.753925 -20.216138 8.106961 -10.957241 -4.573238 -1.069328 -0.300585 -2.946086 -2.787977 7.079633 -0.012927 0.000700 0.008708 6.279322 9.078348 4.910903 4.746538 1.942640 1.697767 1.076845 -6.376242 -6.876379 -0.005733 0.005611 -0.023496
-1.384146 88.383490 -20.419955 133.897345 -4.610078 0.719231 -1.444083 3.434711 1.002940 -0.817228 1.956886 0.588545 -1.018537 2.447396 0.731419 -0.817228 1.956886 0.588545 -14.197030 16.129553 -2.166988 -25.588104 -5.074866 0.882854 -0.130706 5.418284 -4.643143 -19.423954 -3.783988 86.329218 14.839635 -22.466955 6.012131 1.866018 -7.905282 1.614606 1.285376 6.572507 2.040920 18.308218 3.206932 -88.124050 -15.785582 -21.711326 -17.733998 -11.267103 -8.657374 5.692347 -20.243320 8.120010 -10.926893 -4.579952 -1.049664 -0.307910 -2.975483 -2.820000 7.060790 -0.014542 0.007360 0.006119 6.204589 9.052909 4.930475 4.725873 1.966924 1.703593 1.104142 -6.365716 -6.895057 -0.004126 0.002715 -0.024216
-1.364857 88.383514 -20.386465 133.960999 -4.616319 0.715819 -1.449593 3.425639 0.995993 -0.819879 1.951565 0.583059 -1.021889 2.440736 0.724557 -0.819879 1.951565 0.583059 -14.124624 16.182957 -2.180692 -25.443227 -4.989305 0.824493 -0.118152 5.398942 -4.629748 -19.407576 -3.771935 86.324233 14.822135 -22.450247 6.019628 1.840038 -7.896624 1.623403 1.266205 6.555454 2.042106 18.244173 3.145076 -88.163911 -15.959363 -21.664214 -17.950583 -11.243357 -8.669245 5.631642 -20.266446 8.134206 -10.897753 -4.586888 -1.028556 -0.314066 -3.008873 -2.855323 7.039704 -0.015678 0.015936 0.004536 6.120465 9.027614 4.946930 4.709681 1.996164 1.711895 1.135044 -6.356436 -6.916334 -0.002690 -0.000501 -0.024209
